<svg version="1.1" xmlns="http://www.w3.org/2000/svg" xmlns:xlink="http://www.w3.org/1999/xlink" x="0px" y="0px"
	 viewBox="0 0 100 100" style="enable-background:new 0 0 100 100;" xml:space="preserve">
<g id="Vrstva_128">
	<g>
		<g>
			<path d="M8.134,61.136c-0.682,0-1.299-0.469-1.46-1.162C1.391,37.152,14.861,14.049,37.339,7.377
				c18.094-5.367,37.667,1.3,48.703,16.598c0.485,0.672,0.333,1.609-0.339,2.095c-0.671,0.485-1.609,0.332-2.094-0.339
				C73.317,11.465,55.065,5.247,38.193,10.253C17.231,16.475,4.671,38.018,9.597,59.298c0.186,0.807-0.316,1.612-1.123,1.799
				C8.36,61.123,8.247,61.136,8.134,61.136z"/>
		</g>
		<g>
			<path d="M49.882,94.458c-14.46,0.001-28.261-7.07-36.702-19.534c-0.464-0.686-0.285-1.618,0.401-2.083
				c0.686-0.465,1.619-0.286,2.083,0.401C25.839,88.265,44.371,94.89,61.781,89.721c21.586-6.406,34.017-28.475,28.3-50.239
				c-0.21-0.801,0.269-1.621,1.07-1.832c0.8-0.209,1.621,0.269,1.831,1.07c6.131,23.341-7.2,47.007-30.348,53.878
				C58.407,93.852,54.115,94.458,49.882,94.458z"/>
		</g>
		<g>
			<path d="M11.987,84.987c-0.829,0-1.5-0.672-1.5-1.5v-11.5c0-0.828,0.671-1.5,1.5-1.5h11.5c0.829,0,1.5,0.672,1.5,1.5
				c0,0.828-0.671,1.5-1.5,1.5h-10v10C13.487,84.315,12.815,84.987,11.987,84.987z"/>
		</g>
		<g>
			<path d="M86.987,28.487h-11.5c-0.829,0-1.5-0.672-1.5-1.5c0-0.828,0.671-1.5,1.5-1.5h10v-10c0-0.828,0.671-1.5,1.5-1.5
				c0.829,0,1.5,0.672,1.5,1.5v11.5C88.487,27.815,87.815,28.487,86.987,28.487z"/>
		</g>
	</g>
</g>
<script  type="text/javascript">
    <![CDATA[
         var c=window.location.search.split('color=')[1]; c=parseInt(c,16); if(!isNaN(c)){c=c.toString(16);var p=document.getElementsByTagName('path');for(var i=0,l=p.length;i<l;i++){var s=p[i].style;s.fill='#'+c;} var p2=document.getElementsByTagName('polygon');for(var i=0,l=p2.length;i<l;i++){var s=p2[i].style;s.fill='#'+c;} var p3=document.getElementsByTagName('circle');for(var i=0,l=p3.length;i<l;i++){var s=p3[i].style;s.fill='#'+c;} }
        ]]>
</script>
</svg>
