<svg version="1.1" xmlns="http://www.w3.org/2000/svg" xmlns:xlink="http://www.w3.org/1999/xlink" x="0px" y="0px"
	 viewBox="-1.000 -1.000 102.000 102.000" style="enable-background:new 0 0 100 100;" xml:space="preserve">
<g id="Vrstva_154">
	<g>
		<g>
			<path d="M40.685,42.998h-8c-0.829,0-1.5-0.672-1.5-1.5c0-0.828,0.671-1.5,1.5-1.5h8c0.829,0,1.5,0.672,1.5,1.5
				C42.185,42.326,41.514,42.998,40.685,42.998z"/>
		</g>
		<g>
			<path d="M43.367,35.179c-0.384,0-0.767-0.146-1.06-0.439l-6.364-6.363c-0.586-0.586-0.586-1.535,0-2.121
				c0.585-0.586,1.535-0.586,2.121,0l6.364,6.363c0.586,0.586,0.586,1.535,0,2.121C44.135,35.033,43.751,35.179,43.367,35.179z"/>
		</g>
		<g>
			<path d="M52.185,33.498c-0.829,0-1.5-0.672-1.5-1.5v-8c0-0.828,0.671-1.5,1.5-1.5c0.829,0,1.5,0.672,1.5,1.5v8
				C53.685,32.826,53.014,33.498,52.185,33.498z"/>
		</g>
		<g>
			<g>
				<g>
					<path d="M43.685,58.998h-26.5c-6.341,0-11.5-5.159-11.5-11.5v-22c0-6.341,5.159-11.5,11.5-11.5h56
						c6.341,0,11.5,5.159,11.5,11.5v12.5c0,0.828-0.671,1.5-1.5,1.5c-0.829,0-1.5-0.672-1.5-1.5v-12.5c0-4.686-3.813-8.5-8.5-8.5
						h-56c-4.687,0-8.5,3.814-8.5,8.5v22c0,4.687,3.813,8.5,8.5,8.5h26.5c0.829,0,1.5,0.672,1.5,1.5
						C45.185,58.326,44.514,58.998,43.685,58.998z"/>
				</g>
			</g>
			<g>
				<g>
					<path d="M44.685,68.998h-27.5c-6.341,0-11.5-5.159-11.5-11.5v-11.5c0-0.828,0.671-1.5,1.5-1.5c0.829,0,1.5,0.672,1.5,1.5v11.5
						c0,4.687,3.813,8.5,8.5,8.5h27.5c0.829,0,1.5,0.672,1.5,1.5S45.514,68.998,44.685,68.998z"/>
				</g>
			</g>
			<g>
				<g>
					<path d="M82.208,86.002c-0.384,0-0.768-0.146-1.061-0.439L63.47,67.885c-0.586-0.586-0.586-1.535,0-2.121
						c0.586-0.586,1.535-0.586,2.121,0l17.678,17.678c0.586,0.586,0.586,1.535,0,2.121C82.976,85.856,82.592,86.002,82.208,86.002z"
						/>
				</g>
				<g>
					<path d="M92.815,75.396c-0.384,0-0.768-0.146-1.061-0.439L74.077,57.279c-0.586-0.586-0.586-1.535,0-2.121
						c0.586-0.586,1.535-0.586,2.121,0l17.678,17.678c0.586,0.586,0.586,1.535,0,2.121C93.583,75.25,93.199,75.396,92.815,75.396z"
						/>
				</g>
				<g>
					<path d="M56.045,76.103c-0.384,0-0.768-0.146-1.061-0.439c-0.586-0.586-0.586-1.535,0-2.121l7.778-7.778
						c0.586-0.586,1.535-0.586,2.121,0c0.586,0.586,0.586,1.535,0,2.121l-7.778,7.778C56.813,75.957,56.429,76.103,56.045,76.103z"
						/>
				</g>
				<g>
					<path d="M75.137,57.011c-0.384,0-0.768-0.146-1.061-0.439c-0.586-0.586-0.586-1.535,0-2.121l7.778-7.778
						c0.586-0.586,1.535-0.586,2.121,0c0.586,0.586,0.586,1.535,0,2.121l-7.778,7.778C75.905,56.865,75.521,57.011,75.137,57.011z"
						/>
				</g>
				<g>
					<path d="M56.043,76.103c-0.725,0-1.363-0.526-1.479-1.266l-5.186-32.764c-0.129-0.818,0.429-1.586,1.247-1.716
						c0.809-0.135,1.586,0.428,1.716,1.247l5.187,32.764c0.129,0.818-0.429,1.586-1.247,1.716
						C56.201,76.097,56.122,76.103,56.043,76.103z"/>
				</g>
				<g>
					<path d="M82.917,49.233c-0.09,0-0.182-0.008-0.273-0.024l-32.057-5.894c-0.815-0.15-1.354-0.932-1.204-1.747
						c0.149-0.814,0.932-1.354,1.746-1.204l32.057,5.894c0.815,0.15,1.354,0.932,1.204,1.747
						C84.258,48.727,83.627,49.233,82.917,49.233z"/>
				</g>
				<g>
					<path d="M82.916,86.002c-0.384,0-0.768-0.146-1.061-0.439c-0.586-0.586-0.586-1.535,0-2.121l9.899-9.899
						c0.586-0.586,1.535-0.586,2.121,0c0.586,0.586,0.586,1.535,0,2.121l-9.899,9.899C83.683,85.856,83.299,86.002,82.916,86.002z"
						/>
				</g>
			</g>
		</g>
	</g>
</g>
<script  type="text/javascript">
    <![CDATA[
         var c=window.location.search.split('color=')[1]; c=parseInt(c,16); if(!isNaN(c)){c=c.toString(16);var p=document.getElementsByTagName('path');for(var i=0,l=p.length;i<l;i++){var s=p[i].style;s.fill='#'+c;} var p2=document.getElementsByTagName('polygon');for(var i=0,l=p2.length;i<l;i++){var s=p2[i].style;s.fill='#'+c;} var p3=document.getElementsByTagName('circle');for(var i=0,l=p3.length;i<l;i++){var s=p3[i].style;s.fill='#'+c;} }
        ]]>
</script>
</svg>
