<svg version="1.1" xmlns="http://www.w3.org/2000/svg" xmlns:xlink="http://www.w3.org/1999/xlink" x="0px" y="0px"
	 viewBox="0 0 100 100" style="enable-background:new 0 0 100 100;" xml:space="preserve">
<g id="Vrstva_198">
	<g>
		<g>
			<g>
				<path d="M74.653,75.149c-0.829,0-1.5-0.671-1.5-1.5c0-0.829,0.671-1.5,1.5-1.5c9.771,0,17.72-7.95,17.72-17.721
					s-7.949-17.721-17.72-17.721c-0.829,0-1.5-0.671-1.5-1.5c0-0.829,0.671-1.5,1.5-1.5c11.425,0,20.72,9.295,20.72,20.721
					S86.078,75.149,74.653,75.149z"/>
			</g>
			<g>
				<path d="M74.127,74.928c-0.829,0-1.5-0.671-1.5-1.5v-38c0-0.829,0.671-1.5,1.5-1.5c0.829,0,1.5,0.671,1.5,1.5v38
					C75.627,74.257,74.956,74.928,74.127,74.928z"/>
			</g>
		</g>
		<g>
			<g>
				<path d="M25.348,75.149c-11.425,0-20.721-9.295-20.721-20.721s9.295-20.721,20.721-20.721c0.829,0,1.5,0.671,1.5,1.5
					c0,0.829-0.671,1.5-1.5,1.5c-9.771,0-17.721,7.95-17.721,17.721s7.95,17.721,17.721,17.721c0.829,0,1.5,0.671,1.5,1.5
					C26.848,74.478,26.176,75.149,25.348,75.149z"/>
			</g>
			<g>
				<path d="M26.127,74.928c-0.829,0-1.5-0.671-1.5-1.5v-38c0-0.829,0.671-1.5,1.5-1.5c0.829,0,1.5,0.671,1.5,1.5v38
					C27.627,74.257,26.956,74.928,26.127,74.928z"/>
			</g>
		</g>
		<g>
			<path d="M16.25,39.005c-0.1,0-0.201-0.01-0.302-0.031c-0.812-0.166-1.335-0.959-1.169-1.77
				c3.395-16.59,18.168-28.632,35.128-28.632c16.898,0,31.661,11.989,35.102,28.507c0.169,0.811-0.351,1.605-1.162,1.774
				c-0.818,0.166-1.606-0.352-1.774-1.162c-3.153-15.135-16.681-26.119-32.165-26.119c-15.541,0-29.078,11.033-32.188,26.233
				C17.572,38.515,16.947,39.005,16.25,39.005z"/>
		</g>
		<g>
			<path d="M59.906,87.004c-0.829,0-1.5-0.671-1.5-1.5c0-0.829,0.671-1.5,1.5-1.5c15.484,0,29.012-10.984,32.165-26.119
				c0.169-0.811,0.96-1.332,1.774-1.162c0.811,0.169,1.331,0.963,1.162,1.774C91.567,75.016,76.804,87.004,59.906,87.004z"/>
		</g>
		<g>
			<path d="M36.599,25.425c-0.492,0-0.973-0.241-1.261-0.685c-0.45-0.695-0.251-1.624,0.444-2.075
				c4.206-2.724,9.089-4.163,14.121-4.163c5.03,0,9.912,1.439,14.117,4.161c0.696,0.45,0.895,1.379,0.444,2.074
				c-0.449,0.696-1.378,0.895-2.074,0.444c-3.719-2.407-8.037-3.679-12.487-3.679c-4.452,0-8.771,1.273-12.49,3.682
				C37.161,25.347,36.878,25.425,36.599,25.425z"/>
		</g>
		<g>
			<path d="M58.127,91.428h-16c-0.829,0-1.5-0.671-1.5-1.5v-9c0-0.829,0.671-1.5,1.5-1.5h16c0.829,0,1.5,0.671,1.5,1.5v9
				C59.627,90.757,58.956,91.428,58.127,91.428z M43.627,88.428h13v-6h-13V88.428z"/>
		</g>
	</g>
</g>
<script  type="text/javascript">
    <![CDATA[
         var c=window.location.search.split('color=')[1]; c=parseInt(c,16); if(!isNaN(c)){c=c.toString(16);var p=document.getElementsByTagName('path');for(var i=0,l=p.length;i<l;i++){var s=p[i].style;s.fill='#'+c;} var p2=document.getElementsByTagName('polygon');for(var i=0,l=p2.length;i<l;i++){var s=p2[i].style;s.fill='#'+c;} var p3=document.getElementsByTagName('circle');for(var i=0,l=p3.length;i<l;i++){var s=p3[i].style;s.fill='#'+c;} }
        ]]>
</script>
</svg>
